PathFileType	4	(X/Y/Z)	C:\Users\s5001683\Documents\PhD\FASHiON\BaselineData\3. CleanedGaitData\ElaboratedData\FAS-906\Session 1\staticElaborations\StaticCalibration\Static\\StaticCalibration.trc
DataRate	CameraRate	NumFrames	NumMarkers	Units	OrigDataRate	DataStartFrame
120	120	4	90	mm	120	2
Frame#	Time	RFHD			LFHD			RBHD			LBHD			C7			T10			CLAV			STRN			RASI			LASI			RPSI			LPSI			RTH1			RTH2			RTH3			RTH4			RTH5			RTH6			RMFC			RLFC			RTB1			RTB2			RTB3			RTB4			RTB5			RTB6			RMMAL			RLMAL			RCAL			RMT1			RMT23			RMT5			LMT1			LMT23			LMT5			LCAL			LMMAL			LLMAL			LTB1			LTB2			LTB3			LTB4			LTB5			LTB6			LMFC			LLFC			LTH1			LTH2			LTH3			LTH4			LTH5			LTH6			LACR			LASH			LPSH			LUA1			LUA2			LUA3			LMEL			LLEL			LFA1			LFA3			LFA2			LWRU			LWRR			RACR			RASH			RPSH			RUA1			RUA2			RUA3			RMEL			RLEL			RFA1			RFA2			RFA3			RWRU			RWRR			LAJC			RAJC			LEJC			REJC			LHJC			RHJC			LKJC			RKJC			LSJC			RSJC			LWJC			RWJC		
		X1	Y1	Z1	X2	Y2	Z2	X3	Y3	Z3	X4	Y4	Z4	X5	Y5	Z5	X6	Y6	Z6	X7	Y7	Z7	X8	Y8	Z8	X9	Y9	Z9	X10	Y10	Z10	X11	Y11	Z11	X12	Y12	Z12	X13	Y13	Z13	X14	Y14	Z14	X15	Y15	Z15	X16	Y16	Z16	X17	Y17	Z17	X18	Y18	Z18	X19	Y19	Z19	X20	Y20	Z20	X21	Y21	Z21	X22	Y22	Z22	X23	Y23	Z23	X24	Y24	Z24	X25	Y25	Z25	X26	Y26	Z26	X27	Y27	Z27	X28	Y28	Z28	X29	Y29	Z29	X30	Y30	Z30	X31	Y31	Z31	X32	Y32	Z32	X33	Y33	Z33	X34	Y34	Z34	X35	Y35	Z35	X36	Y36	Z36	X37	Y37	Z37	X38	Y38	Z38	X39	Y39	Z39	X40	Y40	Z40	X41	Y41	Z41	X42	Y42	Z42	X43	Y43	Z43	X44	Y44	Z44	X45	Y45	Z45	X46	Y46	Z46	X47	Y47	Z47	X48	Y48	Z48	X49	Y49	Z49	X50	Y50	Z50	X51	Y51	Z51	X52	Y52	Z52	X53	Y53	Z53	X54	Y54	Z54	X55	Y55	Z55	X56	Y56	Z56	X57	Y57	Z57	X58	Y58	Z58	X59	Y59	Z59	X60	Y60	Z60	X61	Y61	Z61	X62	Y62	Z62	X63	Y63	Z63	X64	Y64	Z64	X65	Y65	Z65	X66	Y66	Z66	X67	Y67	Z67	X68	Y68	Z68	X69	Y69	Z69	X70	Y70	Z70	X71	Y71	Z71	X72	Y72	Z72	X73	Y73	Z73	X74	Y74	Z74	X75	Y75	Z75	X76	Y76	Z76	X77	Y77	Z77	X78	Y78	Z78	X79	Y79	Z79	X80	Y80	Z80	X81	Y81	Z81	X82	Y82	Z82	X83	Y83	Z83	X84	Y84	Z84	X85	Y85	Z85	X86	Y86	Z86	X87	Y87	Z87	X88	Y88	Z88	X89	Y89	Z89	X90	Y90	Z90	

158	1.308333	770.130310	1618.099365	-186.712601	775.387756	1618.383301	-292.909607	626.322754	1544.228149	-179.366669	622.554199	1544.376465	-318.781830	604.969788	1421.111572	-247.573914	603.713501	1126.049072	-249.791946	745.053589	1352.301392	-243.336761	797.023132	1144.915039	-241.766983	765.818176	941.511414	-105.376991	765.526611	947.560913	-377.334869	594.454956	972.179688	-182.230118	593.162170	983.973816	-293.033142	730.954285	718.978149	-56.835220	766.992981	651.951965	-95.546143	714.858582	591.344604	-81.835793	803.384094	728.278625	-155.584366	768.656616	673.032410	-212.087158	780.163513	596.942261	-169.144989	662.377747	447.713837	-221.047455	692.328125	450.992004	-104.115074	684.414063	332.815186	-185.655945	693.932678	268.858551	-119.607040	674.566528	202.228806	-175.131546	657.639954	350.360046	-83.924950	600.775330	286.747589	-105.335747	655.682861	220.923050	-100.548347	649.168396	107.122284	-203.804657	634.035645	87.510674	-123.115837	577.641235	67.012650	-168.839645	782.933594	48.427315	-199.591965	790.481995	57.641926	-158.653320	770.334290	47.086094	-105.770988	777.289368	55.046440	-306.578003	781.573669	57.247719	-360.097778	754.081360	38.835495	-402.267731	573.710999	63.989159	-323.388855	644.886597	98.123489	-286.708618	625.677185	94.945564	-364.155609	695.085693	371.368134	-303.281738	709.783203	305.401093	-354.752625	675.864075	241.464859	-309.480011	656.578979	315.728882	-407.083649	599.925171	254.889862	-379.822723	648.390991	186.132095	-381.221832	666.986328	436.677765	-275.310577	677.607849	451.057892	-394.702972	675.182007	736.247375	-437.519836	733.344543	677.273987	-416.808472	687.507263	608.045227	-408.785400	782.563110	810.632813	-394.474976	798.126526	742.595764	-339.070282	772.240540	672.879272	-389.642944	675.332520	1404.244385	-385.896973	753.853882	1285.473145	-394.809509	603.541321	1247.121948	-382.502594	662.543335	1292.179688	-469.390686	736.043640	1291.015503	-511.327576	742.712219	1203.305786	-532.434753	811.187805	1131.369385	-530.066956	811.231628	1166.333252	-581.642944	890.106567	1107.755737	-647.283447	933.198486	1140.198120	-617.038818	895.441589	1145.409790	-630.553528	977.124756	1064.626221	-693.518250	1012.902832	1066.594604	-642.136108	644.302612	1397.700439	-103.919785	735.566650	1289.155029	-103.161766	599.689880	1244.550781	-98.540901	635.510254	1287.362549	-25.835453	702.310608	1295.164795	26.700325	709.400330	1213.827881	58.589420	771.153625	1124.784546	61.325974	779.864624	1174.514771	114.723785	880.737854	1098.808105	182.707916	884.724670	1142.805786	159.049744	922.140930	1134.959961	139.638397	949.822937	1066.471313	211.586792	997.499573	1084.389648	165.945709	635.281891	96.534527	-325.432114	641.602020	97.316479	-163.460247	811.209717	1148.851318	-555.854950	775.509125	1149.649658	88.024879	696.842255	865.894790	-340.123876	697.050336	861.577435	-146.035296	672.297089	443.867828	-335.006775	677.352936	449.352921	-162.581264	678.697601	1266.297546	-388.656052	667.628265	1266.852905	-100.851334	995.013794	1065.610413	-667.827179	973.661255	1075.430481	188.766251	
159	1.316667	770.229614	1618.097656	-186.694321	775.320557	1618.399658	-292.888123	626.252563	1544.184814	-179.347092	622.528259	1544.359131	-318.730377	604.907898	1421.108765	-247.586441	603.640442	1126.203369	-249.588699	744.994751	1352.285034	-243.327591	797.022644	1144.903687	-241.784546	765.853027	941.499695	-105.360474	765.531433	947.572083	-377.346985	594.450317	972.187622	-182.216507	593.144836	983.979919	-293.000671	730.945313	718.978821	-56.831818	766.990234	651.936646	-95.582458	714.849731	591.341492	-81.867683	803.376465	728.273804	-155.598068	768.676636	673.035339	-212.037094	780.176086	596.965942	-169.192703	662.379639	447.702576	-221.053833	692.295898	450.978821	-104.111183	684.413574	332.815338	-185.655136	693.875427	268.862549	-119.592926	674.694824	202.342789	-175.264084	657.577332	350.374298	-83.910210	600.757507	286.755615	-105.338913	655.640686	220.921982	-100.549126	649.146423	107.112434	-203.782898	634.048828	87.500069	-123.132454	577.643188	67.009888	-168.843338	782.975708	48.430153	-199.610565	790.450684	57.633965	-158.661392	770.305054	47.080666	-105.735573	777.299500	55.069530	-306.597412	781.606689	57.223888	-360.140717	754.085815	38.828869	-402.332367	573.715637	63.993847	-323.400757	644.864380	98.136841	-286.698364	625.672363	94.953415	-364.157013	695.085876	371.400269	-303.255371	709.775330	305.412689	-354.759338	675.883545	241.446808	-309.465820	656.576721	315.720337	-407.080994	599.870300	254.869675	-379.791718	648.382263	186.147354	-381.220459	666.841492	436.659515	-275.490997	677.593628	451.060822	-394.695770	675.189331	736.250549	-437.532013	733.359558	677.283081	-416.809692	687.442078	608.042603	-408.680084	782.564758	810.646423	-394.478790	798.112183	742.596191	-339.076782	772.244263	672.883667	-389.641479	675.282837	1404.222900	-385.828857	753.806274	1285.484741	-394.857056	603.533203	1247.125366	-382.441986	662.556824	1292.254028	-469.410706	736.010559	1291.023315	-511.337555	742.699829	1203.313843	-532.402222	811.277405	1131.348022	-530.004395	811.234558	1166.351318	-581.555481	890.144165	1107.800537	-647.211975	933.167114	1140.234985	-616.942566	895.486328	1145.428711	-630.473511	977.176392	1064.671753	-693.428040	1012.902466	1066.625854	-642.040771	644.268494	1397.706665	-103.889771	735.516174	1289.146362	-103.150497	599.632690	1244.507813	-98.605492	635.446411	1287.406128	-25.669956	702.239319	1295.140991	26.725075	709.395386	1213.798584	58.621128	771.151001	1124.795410	61.362324	779.852051	1174.523438	114.747299	880.718994	1098.853638	182.729782	884.721985	1142.870972	159.043060	922.138000	1135.026001	139.637604	949.864868	1066.503174	211.605240	997.507080	1084.436279	165.955429	635.268372	96.545128	-325.427689	641.597626	97.306252	-163.457676	811.255981	1148.849670	-555.779938	775.501526	1149.659424	88.054811	696.841284	865.896264	-340.130271	697.070795	861.562609	-146.022821	672.217560	443.860168	-335.093384	677.337769	449.340698	-162.582508	678.669739	1266.305054	-388.649521	667.574432	1266.827087	-100.877995	995.039429	1065.648804	-667.734406	973.685974	1075.469727	188.780334	
160	1.325000	770.147156	1618.095337	-186.642166	775.312805	1618.393433	-292.842712	626.178894	1544.208984	-179.315643	622.468933	1544.421753	-318.714020	604.875977	1421.084717	-247.517105	603.587708	1126.220581	-249.396652	744.972290	1352.287598	-243.290207	796.938843	1144.877319	-241.723709	765.876099	941.501587	-105.376747	765.541809	947.579163	-377.365540	594.479065	972.155457	-182.292801	593.158081	983.986450	-293.025696	730.937012	719.009460	-56.829094	766.996277	651.926270	-95.603325	714.820190	591.367798	-81.826096	803.448486	728.287537	-155.598328	768.747681	673.025879	-212.049423	780.174255	596.864868	-169.132080	662.367065	447.710297	-221.081558	692.249512	450.990936	-104.108887	684.371033	332.815491	-185.626190	693.878845	268.859802	-119.618515	674.569702	202.260742	-175.105911	657.558838	350.355774	-83.943306	600.719421	286.769287	-105.326233	655.577026	220.921753	-100.562958	649.194641	107.133949	-203.813324	634.034912	87.483459	-123.112091	577.650208	66.998367	-168.864731	783.073303	48.540382	-199.740204	790.441162	57.616722	-158.631577	770.346375	47.079151	-105.768311	777.292053	55.053284	-306.553436	781.576050	57.241375	-360.091187	754.103271	38.842793	-402.335175	573.715881	63.979565	-323.386627	644.859985	98.164642	-286.643799	625.678589	94.912697	-364.205505	695.096802	371.367981	-303.294434	709.773682	305.412933	-354.759216	675.860657	241.458023	-309.471985	656.519409	315.708893	-407.070038	599.848694	254.861176	-379.787811	648.383179	186.144150	-381.215942	666.969666	436.710327	-275.347992	677.568176	451.071442	-394.676392	675.202148	736.250732	-437.547882	733.353699	677.280762	-416.798035	687.383362	608.032104	-408.647125	782.586487	810.668579	-394.502777	798.087952	742.615479	-339.071686	772.189819	672.890808	-389.669525	675.240173	1404.232788	-385.809540	753.803955	1285.483887	-394.846313	603.473511	1247.093140	-382.739380	662.515137	1292.175781	-469.328888	735.992371	1291.036621	-511.279724	742.685425	1203.321655	-532.363586	811.254089	1131.370728	-529.932007	811.278564	1166.367920	-581.519775	890.161133	1107.839111	-647.156494	933.169922	1140.277832	-616.862305	895.537598	1145.469360	-630.458923	977.218445	1064.724243	-693.382263	1012.960449	1066.664673	-642.021973	644.227112	1397.708374	-103.873024	735.493652	1289.142456	-103.125488	599.592651	1244.440918	-98.602028	635.520935	1287.323608	-25.802307	702.249817	1295.158447	26.751291	709.401550	1213.805054	58.597816	771.168091	1124.817261	61.408897	779.818420	1174.535522	114.802612	880.715881	1098.907471	182.733932	884.698853	1142.903442	159.105484	922.155701	1135.088013	139.658844	949.913696	1066.560059	211.615570	997.521545	1084.512085	165.980698	635.269287	96.538670	-325.424652	641.614777	97.308704	-163.462708	811.266327	1148.869324	-555.725891	775.493256	1149.676392	88.105755	696.863052	865.894863	-340.146938	697.101623	861.557508	-146.037989	672.268921	443.890884	-335.012192	677.308289	449.350616	-162.595222	678.638733	1266.288513	-388.792847	667.543152	1266.791687	-100.863758	995.089447	1065.694458	-667.702118	973.717621	1075.536072	188.798134	
161	1.333333	770.057434	1618.077026	-186.597580	775.257324	1618.396729	-292.814423	626.174683	1544.169922	-179.294571	622.383362	1544.385742	-318.623230	604.852173	1421.082886	-247.526657	603.586365	1126.214966	-249.393799	744.966614	1352.290649	-243.266281	796.923889	1144.871460	-241.703217	765.938416	941.519836	-105.414108	765.529297	947.578064	-377.362946	594.508362	972.179199	-182.228699	593.158813	983.986511	-293.027740	730.946350	718.996521	-56.834961	766.924316	651.916992	-95.584930	714.821533	591.379333	-81.826332	803.427917	728.243286	-155.596985	768.691589	673.034485	-212.074768	780.117737	596.831238	-169.142670	662.357849	447.715881	-221.072800	692.197693	450.977203	-104.125557	684.360229	332.799591	-185.618561	693.806519	268.852081	-119.565529	674.538635	202.253189	-175.095612	657.504272	350.361542	-83.944443	600.690369	286.763336	-105.350586	655.590576	220.924850	-100.531555	649.151978	107.115952	-203.778625	634.042603	87.411201	-123.163307	577.639893	67.024681	-168.836441	783.079224	48.517506	-199.708984	790.429871	57.627449	-158.627228	770.325806	47.077900	-105.770584	777.284363	55.030312	-306.590118	781.554016	57.222687	-360.120758	754.105957	38.845619	-402.346130	573.723877	63.990231	-323.402985	644.905273	98.167946	-286.688019	625.666992	94.914482	-364.185883	695.132813	371.394684	-303.315369	709.735840	305.413055	-354.749786	675.881287	241.453766	-309.478729	656.523071	315.716309	-407.079346	599.860107	254.856384	-379.771423	648.411743	186.154099	-381.273163	666.863342	436.716309	-275.312408	677.561707	451.058746	-394.683075	675.159973	736.232544	-437.574738	733.348877	677.302246	-416.845337	687.382263	608.034241	-408.638336	782.614380	810.668213	-394.518677	798.126343	742.615112	-339.112122	772.235657	672.887268	-389.671814	675.233948	1404.221436	-385.794312	753.720947	1285.391724	-394.653961	603.440186	1247.080566	-382.681335	662.465759	1292.173096	-469.332458	735.991577	1291.050049	-511.260651	742.705383	1203.324463	-532.338135	811.226929	1131.401123	-529.973389	811.271484	1166.414429	-581.567444	890.199280	1107.886475	-647.116394	933.188354	1140.314941	-616.758057	895.522827	1145.431885	-630.355408	977.277710	1064.755859	-693.308472	1013.001160	1066.695923	-641.951233	644.196411	1397.690063	-103.821426	735.487732	1289.147339	-103.070625	599.574402	1244.453613	-98.597565	635.423096	1287.336304	-25.760666	702.156555	1295.165527	26.767265	709.382019	1213.799072	58.638931	771.173889	1124.838135	61.382923	779.817505	1174.536011	114.804344	880.760010	1098.925293	182.763107	884.725281	1142.953613	159.085464	922.153198	1135.093872	139.681488	949.903687	1066.589722	211.630127	997.565125	1084.567017	166.012878	635.286133	96.541214	-325.436951	641.597290	97.263577	-163.470966	811.249207	1148.907776	-555.770416	775.495697	1149.687073	88.093634	696.859962	865.909210	-340.126453	697.151939	861.585616	-146.043858	672.212524	443.887527	-334.997742	677.277771	449.346542	-162.599178	678.580566	1266.236145	-388.667648	667.531067	1266.800476	-100.834095	995.139435	1065.725891	-667.629852	973.734406	1075.578369	188.821503	
